<svg id="Layer_2" height="512" viewBox="0 0 64 64" width="512" xmlns="http://www.w3.org/2000/svg" data-name="Layer 2"><g fill="#3e3ef4"><rect height="13" rx="1.5" width="9" x="29.23" y="50.5"/><rect height="23" rx="1.5" transform="matrix(-1 0 0 -1 92.23 104)" width="9" x="41.615" y="40.5"/><rect height="33" rx="1.5" width="9" x="54" y="30.5"/></g><path d="m33.875 25.6a18.411 18.411 0 0 0 5.2-12.643c-.003-7.334-5.125-12.457-12.46-12.457s-12.456 5.123-12.456 12.457a18.4 18.4 0 0 0 5.206 12.652 24.146 24.146 0 0 0 -18.365 23.501 1.5 1.5 0 0 0 .743 1.29 46.741 46.741 0 0 0 24.487 7.072v-3a43.74 43.74 0 0 1 -22.214-6.2 21.127 21.127 0 0 1 11.8-18.192l9.526 15.229a1.5 1.5 0 0 0 2.543 0l9.52-15.22a21.307 21.307 0 0 1 8.336 7.411h3.49a24.33 24.33 0 0 0 -15.356-11.9zm-16.716-12.643c0-5.745 3.712-9.457 9.456-9.457s9.457 3.712 9.457 9.457c0 5.763-4.037 12.884-9.457 12.884-5.379 0-9.456-7.041-9.456-12.884zm9.456 28.73-7.974-12.748a21.523 21.523 0 0 1 4.174-.923 9.158 9.158 0 0 0 7.617-.009 21.2 21.2 0 0 1 4.16.928z"/></svg>